<svg width="20" height="20" viewBox="0 0 20 20" fill="none" xmlns="http://www.w3.org/2000/svg">
<path d="M13.3334 8.33333C13.3334 6.49167 11.8417 5 10.0001 5C8.15841 5 6.66675 6.49167 6.66675 8.33333C6.66675 10.175 8.15841 11.6667 10.0001 11.6667C11.8417 11.6667 13.3334 10.175 13.3334 8.33333ZM8.33341 8.33333C8.33341 7.41667 9.08341 6.66667 10.0001 6.66667C10.9167 6.66667 11.6667 7.41667 11.6667 8.33333C11.6667 9.25 10.9167 10 10.0001 10C9.08341 10 8.33341 9.25 8.33341 8.33333Z" fill="#716969"/>
<path d="M9.51666 18.175C9.65833 18.275 9.83333 18.3333 10 18.3333C10.1667 18.3333 10.3417 18.2833 10.4833 18.175C10.7333 17.9917 16.6917 13.7 16.6667 8.32499C16.6667 4.64999 13.675 1.65833 10 1.65833C6.325 1.65833 3.33333 4.64999 3.33333 8.32499C3.30833 13.6917 9.26666 17.9917 9.51666 18.175ZM10 3.33333C12.7583 3.33333 15 5.57499 15 8.33333C15.0167 12.0333 11.3417 15.3583 10 16.45C8.65833 15.3583 4.98333 12.0417 5 8.33333C5 5.57499 7.24166 3.33333 10 3.33333Z" fill="#716969"/>
</svg>
