<svg width="31" height="31" viewBox="0 0 31 31" fill="none" xmlns="http://www.w3.org/2000/svg">
<path fill-rule="evenodd" clip-rule="evenodd" d="M20.0208 12.2708C20.3634 12.2708 20.6919 12.1347 20.9342 11.8925C21.1764 11.6503 21.3125 11.3217 21.3125 10.9792C21.3125 10.6366 21.1764 10.3081 20.9342 10.0658C20.6919 9.82359 20.3634 9.6875 20.0208 9.6875C19.6783 9.6875 19.3497 9.82359 19.1075 10.0658C18.8653 10.3081 18.7292 10.6366 18.7292 10.9792C18.7292 11.3217 18.8653 11.6503 19.1075 11.8925C19.3497 12.1347 19.6783 12.2708 20.0208 12.2708ZM20.0208 14.2083C20.8773 14.2083 21.6986 13.8681 22.3042 13.2625C22.9098 12.6569 23.25 11.8356 23.25 10.9792C23.25 10.1227 22.9098 9.30139 22.3042 8.6958C21.6986 8.09021 20.8773 7.75 20.0208 7.75C19.1644 7.75 18.3431 8.09021 17.7375 8.6958C17.1319 9.30139 16.7917 10.1227 16.7917 10.9792C16.7917 11.8356 17.1319 12.6569 17.7375 13.2625C18.3431 13.8681 19.1644 14.2083 20.0208 14.2083ZM17.1146 21.9583V19.375C17.1146 18.4329 16.7403 17.5294 16.0742 16.8633C15.4081 16.1972 14.5046 15.8229 13.5625 15.8229H8.39583C7.45376 15.8229 6.55028 16.1972 5.88413 16.8633C5.21799 17.5294 4.84375 18.4329 4.84375 19.375V21.9583H6.78125V19.375C6.78125 18.4837 7.50458 17.7604 8.39583 17.7604H13.5625C14.4537 17.7604 15.1771 18.4837 15.1771 19.375V21.9583H17.1146ZM26.1562 19.375V21.9583H24.2188V19.375C24.2188 18.4837 23.4954 17.7604 22.6042 17.7604H19.375V15.8229H22.6042C23.5462 15.8229 24.4497 16.1972 25.1159 16.8633C25.782 17.5294 26.1562 18.4329 26.1562 19.375ZM12.2708 10.9792C12.2708 11.3217 12.1347 11.6503 11.8925 11.8925C11.6503 12.1347 11.3217 12.2708 10.9792 12.2708C10.6366 12.2708 10.3081 12.1347 10.0658 11.8925C9.82359 11.6503 9.6875 11.3217 9.6875 10.9792C9.6875 10.6366 9.82359 10.3081 10.0658 10.0658C10.3081 9.82359 10.6366 9.6875 10.9792 9.6875C11.3217 9.6875 11.6503 9.82359 11.8925 10.0658C12.1347 10.3081 12.2708 10.6366 12.2708 10.9792ZM14.2083 10.9792C14.2083 11.8356 13.8681 12.6569 13.2625 13.2625C12.6569 13.8681 11.8356 14.2083 10.9792 14.2083C10.1227 14.2083 9.30139 13.8681 8.6958 13.2625C8.09021 12.6569 7.75 11.8356 7.75 10.9792C7.75 10.1227 8.09021 9.30139 8.6958 8.6958C9.30139 8.09021 10.1227 7.75 10.9792 7.75C11.8356 7.75 12.6569 8.09021 13.2625 8.6958C13.8681 9.30139 14.2083 10.1227 14.2083 10.9792Z" fill="#716969"/>
</svg>
