<svg width="24" height="24" viewBox="0 0 24 24" fill="none" xmlns="http://www.w3.org/2000/svg">
<g filter="url(#filter0_i_9_148)">
<path d="M12 20.962C9.99067 20.3653 8.32167 19.1483 6.993 17.311C5.66433 15.4737 5 13.4033 5 11.1V5.692L12 3.077L19 5.692V11.1C19 13.4027 18.3357 15.4727 17.007 17.31C15.6783 19.1473 14.0093 20.364 12 20.962ZM12 19.901C13.7333 19.351 15.1667 18.251 16.3 16.601C17.4333 14.951 18 13.1177 18 11.101V6.375L12 4.145L6 6.375V11.1C6 13.1167 6.56667 14.95 7.7 16.6C8.83333 18.25 10.2667 19.351 12 19.901Z" fill="white"/>
</g>
<defs>
<filter id="filter0_i_9_148" x="0" y="0" width="24" height="28" filterUnits="userSpaceOnUse" color-interpolation-filters="sRGB">
<feFlood flood-opacity="0" result="BackgroundImageFix"/>
<feBlend mode="normal" in="SourceGraphic" in2="BackgroundImageFix" result="shape"/>
<feColorMatrix in="SourceAlpha" type="matrix" values="0 0 0 0 0 0 0 0 0 0 0 0 0 0 0 0 0 0 127 0" result="hardAlpha"/>
<feOffset dy="4"/>
<feGaussianBlur stdDeviation="2"/>
<feComposite in2="hardAlpha" operator="arithmetic" k2="-1" k3="1"/>
<feColorMatrix type="matrix" values="0 0 0 0 0 0 0 0 0 0 0 0 0 0 0 0 0 0 0.25 0"/>
<feBlend mode="normal" in2="shape" result="effect1_innerShadow_9_148"/>
</filter>
</defs>
</svg>
